<svg width="552" height="200" viewBox="0 0 552 200" fill="none" xmlns="http://www.w3.org/2000/svg">
<path d="M218.615 26.2198L230.588 28.2415C234.682 28.9345 237.885 32.2275 238.554 36.4429L240.518 48.769C240.62 49.3998 241.149 49.8634 241.771 49.8634C242.393 49.8634 242.922 49.3998 243.025 48.769L244.988 36.4429C245.661 32.2275 248.86 28.9345 252.955 28.2415L264.927 26.2198C265.54 26.1147 265.99 25.5698 265.99 24.9294C265.99 24.2889 265.54 23.7441 264.927 23.6389L252.955 21.6173C248.86 20.9242 245.661 17.6312 244.988 13.4158L243.025 1.08978C242.922 0.458901 242.393 -0.00469971 241.771 -0.00469971C241.149 -0.00469971 240.62 0.458901 240.518 1.08978L238.554 13.4158C237.881 17.6312 234.682 20.929 230.588 21.6173L218.615 23.6389C218.002 23.7441 217.552 24.2889 217.552 24.9294C217.552 25.5698 218.002 26.1147 218.615 26.2198Z" fill="white"/>
<path d="M369.952 38.4502L374.097 41.3943C375.546 42.4219 376.544 44.0373 376.841 45.82L377.616 50.5038C377.653 50.7332 377.825 50.9196 378.048 50.9722C378.09 50.9818 378.132 50.9866 378.173 50.9866C378.354 50.9866 378.526 50.8957 378.633 50.7428L381.516 46.5752C382.551 45.0792 384.153 44.0708 385.917 43.8079L390.508 43.1197C390.745 43.0862 390.935 42.8998 390.982 42.6609C391.028 42.4219 390.921 42.1734 390.717 42.0491L386.869 39.6737C385.165 38.6223 384.027 36.8587 383.749 34.837L383.08 30.0289C383.048 29.7947 382.881 29.6036 382.658 29.5462C382.435 29.4889 382.203 29.5749 382.064 29.7661L379.111 33.9241C378.09 35.3627 376.586 36.3138 374.873 36.6006L370.175 37.3892C369.947 37.4274 369.766 37.6043 369.715 37.8337C369.664 38.0631 369.757 38.3068 369.947 38.4407L369.952 38.4502Z" fill="white"/>
<path d="M300.864 29.4984C303.14 29.4984 304.986 27.5982 304.986 25.2543C304.986 22.9103 303.14 21.0102 300.864 21.0102C298.587 21.0102 296.741 22.9103 296.741 25.2543C296.741 27.5982 298.587 29.4984 300.864 29.4984Z" fill="white"/>
<path d="M551.014 86.3014L543.967 82.2342C543.902 82.1959 543.837 82.1577 543.772 82.1195C542.49 81.3452 541.771 79.854 541.915 78.3294C545.039 44.9502 528.187 24.6856 507.533 20.4749L467.702 12.35C465.914 11.9867 466.518 13.2246 467.261 15.2893C470.594 25.5267 468.611 41.3704 467.966 45.7005L461.43 89.2886C461.003 92.1419 459.661 99.937 457.043 107.297C455.766 110.891 450.562 110.045 450.413 106.222C450.269 102.599 450.432 99.4734 450.529 98.0779L452.642 68.0537C452.851 65.0714 453.877 54.2413 457.586 48.1858C458.38 46.9814 458.96 46.2884 457.73 46.1641L448.129 45.1796C446.806 45.0458 447.373 45.8535 447.897 47.1917C450.706 53.9163 450.209 64.799 450 67.7813L447.089 109.199C447.099 109.094 447.015 108.975 447.024 108.87C439.392 88.6768 428.515 59.1402 422.61 43.4112C422.471 42.8616 421.965 42.4888 421.524 42.441L405.93 40.8399C404.695 40.7108 405.173 41.5138 405.786 42.8616C408.595 49.5862 408.098 60.4688 407.889 63.4512L405.777 93.4753C404.607 102.379 402.773 113.778 399.008 118.605C397.472 120.574 393.925 119.676 393.6 116.306C392.908 109.133 392.462 103.192 393.614 89.7665C395.331 69.7504 383.582 64.0725 373.712 63.6806C368.062 63.456 357.71 64.7799 355.616 73.3732C354.622 77.4166 357.041 80.4706 360.077 80.5901C362.268 80.6761 364.775 79.1419 366.521 75.4379C367.988 72.3313 369.302 66.5673 373.856 66.749C380.35 67.007 382.282 74.0232 381.845 87.9886C379.766 84.8437 376.149 82.2533 370.328 82.0191C363.499 81.7467 352.102 86.0911 351.628 98.833L351.596 99.6503C351.271 108.315 357.533 117.033 368.833 117.482C374.738 117.716 378.54 115.317 380.801 111.322C380.796 111.489 380.787 111.508 380.782 111.599C380.411 117.095 376.135 122.137 370.782 122.305C369.455 122.348 368.071 122.357 366.632 122.333H344.53V39.8888C344.53 34.7318 346.257 15.9632 351.893 4.91801C352.956 2.70993 352.756 1.41949 350.472 1.41949H322.576C320.445 1.41949 321.36 2.70993 322.576 4.91801C328.212 15.9584 328.667 34.7318 328.667 39.8888V91.793C328.667 94.6845 328.523 101.863 327.399 109.563C326.968 112.531 324.721 113.391 322.46 111.494C319.113 108.688 317.177 106.858 314.099 99.9657C311.866 94.9569 309.647 91.7069 305.501 90.1297C312.488 88.5525 318.551 83.6345 318.551 71.8486C318.551 57.1902 308.649 53.3858 299.434 53.3858H275.251C274.1 53.3858 274.639 54.0358 275.251 55.1494C278.093 60.7174 278.32 70.1806 278.32 72.7805V98.9477C278.32 101.548 278.088 111.011 275.251 116.579C274.639 117.692 274.1 118.342 275.251 118.342H292.832C293.984 118.342 293.445 117.692 292.906 116.579C290.065 111.011 289.838 101.548 289.838 98.9477V90.7845C300.511 91.0617 301.481 96.9834 305.116 106.188C308.797 115.504 311.337 118.342 322.469 118.342H325.654C324.855 121.382 323.848 124.274 322.576 126.769C321.36 128.977 320.445 130.262 322.576 130.262H405.317C407.3 130.262 408.061 128.972 408.061 126.396V107.249C408.191 100.883 408.335 95.0716 408.428 93.7573L411.519 49.7869C413.307 53.4001 415.089 58.3038 417.322 64.431L437.494 118.299C437.721 118.859 438.139 119.222 438.492 119.26L451.862 120.632L491.327 128.68C511.201 132.733 531.831 123.136 539.515 92.5338C539.877 91.0904 541.028 89.9959 542.453 89.733H542.481L550.707 88.2419C551.13 88.1654 551.459 87.8213 551.534 87.3864C551.608 86.9514 551.404 86.5165 551.028 86.2967L551.014 86.3014ZM296.514 87.9933H289.833V56.1674H296.514C302.888 56.1674 307.033 60.6218 307.033 71.7578C307.033 82.8937 302.888 87.9933 296.514 87.9933ZM372.417 114.165C366.6 113.936 364.028 105.873 364.288 98.9429C364.65 89.2599 369.445 85.2691 373.41 85.4268C379.399 85.6658 381.344 92.2757 381.488 95.2389C381.228 102.169 380.429 114.485 372.421 114.17L372.417 114.165ZM524.069 74.4103C523.912 75.9254 522.825 77.168 521.372 77.4739C518.42 78.1048 513.814 79.0463 513.814 79.0463C513.406 79.1276 513.09 79.4574 513.011 79.8732C512.932 80.2937 513.109 80.7191 513.457 80.9485C513.457 80.9485 517.556 83.6919 520.105 85.422C521.312 86.2393 521.887 87.7544 521.539 89.1978C515.481 114.376 502.301 126.142 487.158 123.055L471.36 120.708L486.192 21.7797L501.99 24.1264C518.016 27.3955 526.971 46.5369 524.069 74.4103Z" fill="white"/>
<path d="M272.23 104.97C270.995 106.958 267.703 112.101 260.568 112.101C251.58 112.101 248.15 103.479 246.984 96.7635H271.752C272.439 96.7635 272.917 96.1852 272.852 95.3536C272.374 82.5878 264.895 73.1342 254.468 73.1342C249.57 73.1342 245.053 75.5239 241.776 79.6007C240.239 81.5077 237.235 80.8911 236.479 78.5397C233.02 67.7574 224.668 62.2181 216.043 61.8883L206.015 61.6684C203.29 61.6111 201.173 59.164 201.471 56.3777C201.93 52.0475 202.859 47.0196 204.72 43.3777C205.458 42.0395 206.011 41.2604 204.72 41.2604H194.665C193.281 41.2604 193.927 42.0395 194.572 43.3777C197.984 50.0689 198.263 61.4438 198.263 64.5647V107.942C198.263 107.833 198.17 107.718 198.17 107.608C193.179 96.9069 187.047 83.5724 181.304 71.0599V71.0886C176.346 60.292 171.704 50.1692 168.356 42.9571C168.171 42.3979 167.618 42.0634 167.154 42.0634H150.799C149.504 42.0634 150.061 42.8472 150.799 44.1854C154.216 50.8861 154.494 62.2754 154.494 65.4011V71.1125C154.494 72.1926 153.125 72.575 152.572 71.6526C148.153 64.2589 140.818 59.7567 132.109 59.7567C127.615 59.7567 123.478 60.9563 119.918 63.1309C117.555 64.5743 114.658 62.3614 115.229 59.5942L116.896 51.5361C120.071 36.0414 122.945 24.6664 127.072 18.8881C128.107 17.4878 128.144 16.3359 126.918 16.4506L104.138 18.5583C102.574 18.7017 102.546 20.0113 103.725 20.8859C117.044 32.5667 110.183 67.8434 106.357 87.3194C104.486 96.8065 102.416 106.642 100.582 114.983C97.9546 107.216 98.6371 109.113 95.4524 99.6024L80.7174 54.8817C75.0398 37.9197 74.3202 28.3418 77.5931 23.3043C78.7305 21.7271 78.5634 20.9241 77.0035 21.0723L48.4204 23.7153C47.1948 23.83 47.5105 25.2734 49.2885 26.7407C54.8733 31.6156 62.4543 51.995 63.9724 56.435L65.2351 60.4019C61.4423 78.5636 56.2846 103.555 53.021 119.384C50.3934 111.618 51.0758 113.515 47.8912 104.004L40.4773 81.5077C40.2962 80.3845 40.6119 79.2184 41.3918 78.3772C41.7261 78.0187 42.0789 77.6794 42.4549 77.3639L48.945 71.9298C49.2792 71.6526 49.4046 71.1842 49.2607 70.7684C49.1168 70.3526 48.7361 70.0706 48.3043 70.0706L40.2127 70.0563C39.702 70.0563 39.196 70.0228 38.6992 69.9559C37.5479 69.803 36.5684 69.0669 36.0345 68.0298L33.1516 59.2835C27.474 42.3215 26.7544 32.7436 30.0273 27.7061C30.7561 26.6976 30.9418 26.0094 30.5751 25.6796C30.4172 25.4024 30.018 25.2782 29.3402 25.3403L0.738473 27.9737C-0.259639 28.0646 -0.236427 29.0395 0.766328 30.1914C1.01237 30.4973 1.32806 30.8127 1.71337 31.1329C2.20547 31.5631 2.71613 32.1175 3.23608 32.7723C8.57482 39.5877 14.921 56.6883 16.2951 60.7078L20.269 72.7614C20.6543 73.9276 20.3897 75.2371 19.5355 76.1022C19.3266 76.3125 19.1084 76.518 18.8856 76.7139L12.3259 82.4062C12.0102 82.6834 11.8848 83.1279 12.0148 83.5341C12.1448 83.9404 12.5023 84.2224 12.9154 84.2511C12.9154 84.2511 19.0109 84.7146 22.3395 85.0396C23.5883 85.1591 24.6467 86.029 25.046 87.2477L31.0393 105.443C36.3316 121.631 37.1998 124.656 41.2618 137.36C41.4058 137.775 41.6054 138.091 41.8468 138.296C42.0835 138.535 42.3621 138.66 42.6638 138.631L51.5958 137.804C52.0415 137.761 52.5707 137.226 52.6403 136.561L55.0683 125.225L67.171 66.2519L78.7027 101.137C83.995 117.32 84.8585 120.345 88.9205 133.039C89.1944 133.832 89.6726 134.277 90.2297 134.224L99.1616 133.398C99.6073 133.354 100.137 132.819 100.206 132.155L105.401 107.039C106.009 104.09 109.793 103.507 111.283 106.102C115.693 113.769 123.195 118.471 132.099 118.471C140.539 118.471 147.688 114.246 152.145 107.283C152.642 106.509 153.816 106.991 153.677 107.909C153.139 111.484 152.252 115.212 150.79 118.084C150.051 119.423 149.494 120.206 150.79 120.206H160.859C162.242 120.206 161.597 119.423 160.952 118.084C157.535 111.384 157.256 99.9944 157.256 96.8686V50.7523C159.383 54.3273 161.597 59.2357 164.369 65.3772L181.299 101.978V101.906L188.931 118.405C189.21 118.964 189.67 119.298 190.041 119.298H197.696L213.81 119.905C223.582 120.273 233.494 114.519 236.906 100.74C238.777 111.412 246.813 118.629 256.525 118.629C266.236 118.629 271.821 109.176 273.195 105.529C273.632 104.344 272.842 104.028 272.234 104.951L272.23 104.97ZM134.133 115.174C124.04 115.174 119.881 93.9867 119.881 82.7551C119.881 73.3397 120.944 63.0688 129.885 63.0688C139.889 63.0688 144.313 83.8257 144.313 95.5925C144.313 104.473 143.074 115.174 134.133 115.174ZM227.816 91.3915C227.161 108.473 220.416 117.683 211.294 117.339L205.533 117.119L207.571 64.0534L213.332 64.2732C222.454 64.6173 228.447 74.9743 227.816 91.3915ZM246.432 90.9565C246.432 83.6584 248.558 75.7007 254.254 75.7007C259.537 75.7007 262.485 81.5889 262.485 88.0554C262.485 93.4466 261.111 94.1922 258.094 94.1922H246.567C246.497 92.9495 246.427 91.8694 246.427 90.9565H246.432Z" fill="white"/>
<g clip-path="url(#clip0_119_97)">
<path d="M210.644 186.762H215.165L215.041 188.047H213.75L213.062 194.444C212.952 195.368 212.709 196.252 212.331 197.102C211.959 197.953 211.376 198.646 210.582 199.189C209.789 199.731 208.714 200 207.352 200C205.393 200 204.079 199.462 203.405 198.387C202.731 197.312 202.473 196.071 202.626 194.669L203.357 188.047H202L202.124 186.762H206.812L206.645 188.047H204.834L204.126 194.625C203.988 195.91 204.189 196.907 204.729 197.615C205.269 198.324 206.196 198.681 207.5 198.681C209.956 198.681 211.347 197.268 211.667 194.449L212.355 188.052H210.501L210.644 186.767V186.762Z" fill="white"/>
<path d="M219.891 186.362L220.331 186H222.911L222.056 192.641C222.376 192.108 222.777 191.649 223.265 191.268C223.752 190.887 224.388 190.696 225.181 190.696C226.251 190.696 227.064 191.043 227.627 191.737C228.191 192.431 228.468 193.349 228.468 194.483C228.468 195.245 228.335 196.057 228.062 196.912C227.79 197.767 227.336 198.495 226.7 199.096C226.06 199.697 225.2 200 224.12 200C222.634 200 221.678 199.443 221.248 198.334C221.191 198.573 221.129 198.817 221.062 199.057C220.99 199.296 220.923 199.546 220.851 199.8H219.456C219.566 199.414 219.681 198.988 219.8 198.534C219.92 198.08 220.006 197.63 220.058 197.19L221.329 187.143H219.786L219.891 186.362ZM223.991 198.857C224.741 198.857 225.329 198.627 225.759 198.163C226.189 197.703 226.495 197.141 226.676 196.487C226.858 195.832 226.949 195.231 226.949 194.683C226.949 192.783 226.232 191.835 224.803 191.835C224.01 191.835 223.355 192.128 222.834 192.719C222.314 193.305 221.979 193.916 221.826 194.547L221.578 196.491C221.578 197.161 221.802 197.723 222.256 198.177C222.705 198.632 223.288 198.861 223.996 198.861L223.991 198.857Z" fill="white"/>
<path d="M243.196 198.656L243.091 199.419L242.632 199.8H240.238L240.257 198.094C239.937 198.671 239.526 199.125 239.029 199.467C238.527 199.809 237.92 199.98 237.194 199.98C236.305 199.98 235.603 199.712 235.091 199.169C234.575 198.627 234.389 197.767 234.527 196.594L235.11 192.02H233.548L233.653 191.219L234.112 190.877H236.673L236.009 196.193C235.885 197.141 235.971 197.821 236.267 198.231C236.563 198.637 237.07 198.842 237.777 198.842C238.484 198.842 239.101 198.607 239.535 198.138C239.975 197.669 240.262 197.127 240.4 196.511L241.131 190.877H242.546L241.566 198.661H243.191L243.196 198.656Z" fill="white"/>
<path d="M254.129 186.362L254.569 186H257.756L256.132 198.656H257.713L257.632 199.458L257.173 199.8H254.798L254.841 197.972C254.507 198.519 254.072 198.993 253.542 199.394C253.006 199.795 252.337 199.995 251.53 199.995C250.517 199.995 249.747 199.653 249.217 198.974C248.691 198.29 248.424 197.391 248.424 196.267C248.424 195.49 248.572 194.669 248.863 193.799C249.155 192.929 249.623 192.196 250.268 191.59C250.913 190.989 251.769 190.686 252.839 190.686C254.172 190.686 255.066 191.18 255.525 192.172L256.17 187.139H254.043L254.125 186.357L254.129 186.362ZM252.983 191.835C252.218 191.835 251.616 192.059 251.171 192.509C250.727 192.958 250.412 193.511 250.225 194.165C250.039 194.82 249.943 195.46 249.943 196.091C249.943 197.938 250.622 198.857 251.984 198.857C252.777 198.857 253.451 198.534 254.005 197.884C254.559 197.234 254.908 196.599 255.047 195.969L255.295 194.043C255.267 193.403 255.037 192.875 254.598 192.46C254.158 192.045 253.623 191.839 252.983 191.839V191.835Z" fill="white"/>
<path d="M289.219 186.762C290.456 186.762 291.379 187.016 291.99 187.525C292.602 188.033 292.908 188.702 292.908 189.528C292.908 190.354 292.659 191.043 292.167 191.624C291.675 192.206 291.068 192.563 290.346 192.699L290.327 192.778C291.173 192.91 291.799 193.252 292.2 193.799C292.602 194.346 292.803 194.991 292.803 195.724C292.803 196.834 292.387 197.791 291.555 198.593C290.724 199.394 289.529 199.795 287.971 199.795H281.826L281.95 198.51H283.594L284.741 188.038H283.097L283.245 186.753H289.223L289.219 186.762ZM287.847 198.514C288.86 198.514 289.677 198.275 290.294 197.791C290.91 197.312 291.221 196.633 291.221 195.763C291.221 194.361 290.428 193.657 288.846 193.657H285.596L285.056 198.51H287.847V198.514ZM288.344 192.46C289.204 192.46 289.916 192.235 290.48 191.786C291.044 191.336 291.321 190.725 291.321 189.948C291.321 189.254 291.106 188.761 290.676 188.473C290.246 188.184 289.649 188.043 288.884 188.043H286.199L285.721 192.455H288.344V192.46Z" fill="white"/>
<path d="M307.066 190.872C306.928 191.341 306.803 191.8 306.693 192.255C306.583 192.709 306.497 193.173 306.445 193.638L305.781 198.651H307.176L307.095 199.453L306.655 199.795H304.467L304.51 197.992C304.204 198.524 303.807 198.993 303.31 199.394C302.818 199.795 302.163 199.995 301.341 199.995C300.328 199.995 299.559 199.653 299.029 198.974C298.503 198.29 298.235 197.376 298.235 196.228C298.235 195.465 298.369 194.654 298.642 193.789C298.914 192.929 299.358 192.196 299.984 191.595C300.61 190.994 301.456 190.691 302.526 190.691C303.941 190.691 304.858 191.253 305.274 192.377C305.332 192.123 305.394 191.874 305.461 191.624C305.532 191.375 305.609 191.126 305.69 190.872H307.066ZM302.675 191.835C301.91 191.835 301.322 192.064 300.907 192.519C300.491 192.973 300.195 193.525 300.023 194.175C299.851 194.825 299.764 195.436 299.764 196.013C299.764 197.913 300.438 198.861 301.786 198.861C302.55 198.861 303.186 198.558 303.692 197.957C304.199 197.356 304.529 196.746 304.682 196.13L304.954 194.165C304.94 193.496 304.725 192.944 304.309 192.499C303.893 192.059 303.353 191.839 302.684 191.839L302.675 191.835Z" fill="white"/>
<path d="M312.939 186.381L313.355 186H315.997L314.392 198.656H315.935L315.83 199.458L315.39 199.8H312.829L314.435 187.143H312.829L312.934 186.381H312.939Z" fill="white"/>
<path d="M321.354 191.253L321.794 190.872H324.417L323.438 198.656H325L324.895 199.458L324.436 199.8H321.875L322.855 192.015H321.249L321.354 191.253ZM323.208 188.565L323.395 186.738H324.938L324.752 188.565H323.208Z" fill="white"/>
<path d="M269.932 196.299C271.22 196.299 272.264 195.3 272.264 194.066C272.264 192.833 271.22 191.833 269.932 191.833C268.644 191.833 267.6 192.833 267.6 194.066C267.6 195.3 268.644 196.299 269.932 196.299Z" fill="white"/>
</g>
<path d="M129.135 164.798H130.924L132.171 153.435H130.382L130.541 152.043H136.542C138.156 152.043 139.345 152.383 140.107 153.067C140.87 153.751 141.249 154.605 141.249 155.636C141.249 157.901 140.065 159.328 137.695 159.924L139.755 164.802H141.567L141.385 166.193H138.532L136.131 160.272H133.007L132.508 164.802H134.455L134.319 166.193H129L129.135 164.802V164.798ZM135.767 158.944C137.126 158.944 138.094 158.64 138.675 158.031C139.256 157.423 139.546 156.668 139.546 155.767C139.546 154.213 138.423 153.439 136.174 153.439H133.75L133.162 158.944H135.764H135.767Z" fill="white"/>
<path d="M150.912 165.169C151.605 165.169 152.174 164.991 152.62 164.636C153.065 164.28 153.409 163.806 153.649 163.209L154.896 163.493C154.683 164.308 154.218 164.995 153.491 165.56C152.767 166.126 151.822 166.41 150.661 166.41C149.437 166.41 148.489 166.051 147.807 165.331C147.13 164.612 146.789 163.572 146.789 162.209C146.789 160.553 147.254 159.158 148.183 158.019C149.112 156.881 150.343 156.312 151.884 156.312C152.774 156.312 153.537 156.525 154.172 156.952C154.807 157.379 155.124 157.972 155.124 158.727C155.124 159.438 154.85 160.047 154.3 160.557C153.75 161.067 152.825 161.45 151.528 161.711C151.059 161.798 150.564 161.889 150.045 161.984C149.526 162.078 148.992 162.161 148.45 162.233C148.465 163.146 148.659 163.865 149.027 164.387C149.395 164.908 150.026 165.169 150.916 165.169H150.912ZM150.866 160.794C152.012 160.549 152.732 160.248 153.026 159.901C153.32 159.553 153.467 159.205 153.467 158.857C153.467 158.363 153.309 158.015 152.991 157.814C152.674 157.612 152.252 157.51 151.725 157.51C150.668 157.51 149.894 157.889 149.406 158.64C148.915 159.395 148.609 160.229 148.489 161.142C149.515 161.011 150.308 160.897 150.866 160.794Z" fill="white"/>
<path d="M164.176 165.169C165.806 165.169 166.619 164.612 166.619 163.493C166.619 162.897 166.375 162.497 165.884 162.284C165.392 162.075 164.757 161.865 163.971 161.663C163.305 161.505 162.701 161.264 162.148 160.944C161.598 160.624 161.323 160.043 161.323 159.201C161.323 158.245 161.687 157.521 162.411 157.035C163.135 156.549 163.971 156.308 164.923 156.308C165.601 156.308 166.251 156.395 166.871 156.569C167.49 156.743 168.001 156.952 168.412 157.201L168.365 159.466L167.119 159.62L167.03 158.075C166.743 157.929 166.445 157.806 166.135 157.703C165.826 157.6 165.469 157.549 165.059 157.549C163.642 157.549 162.93 158.051 162.93 159.051C162.93 159.486 163.104 159.806 163.448 160.007C163.797 160.209 164.339 160.407 165.078 160.596C165.771 160.77 166.472 161.023 167.173 161.359C167.874 161.691 168.226 162.359 168.226 163.363C168.226 164.308 167.87 165.051 167.161 165.592C166.453 166.138 165.531 166.41 164.401 166.41C163.708 166.41 162.988 166.319 162.241 166.138C161.493 165.956 160.924 165.726 160.533 165.454L161.075 163.256L162.322 163.387L162.097 164.734C162.686 165.023 163.379 165.169 164.18 165.169H164.176Z" fill="white"/>
<path d="M174.273 156.94L174.792 156.506H176.039L176.356 153.893L176.898 153.391H177.963L177.556 156.506H180.998L180.886 157.288L180.367 157.747H177.402L176.724 163.209C176.573 164.513 176.987 165.169 177.971 165.169C178.304 165.169 178.61 165.062 178.888 164.853C179.167 164.644 179.426 164.13 179.67 163.319L180.801 163.691C180.545 164.636 180.185 165.323 179.725 165.758C179.264 166.193 178.617 166.41 177.789 166.41C176.852 166.41 176.155 166.134 175.694 165.584C175.234 165.031 175.063 164.284 175.183 163.343L175.884 157.751H174.165L174.277 156.944L174.273 156.94Z" fill="white"/>
<path d="M186.202 162.078C186.202 160.557 186.64 159.213 187.515 158.051C188.39 156.889 189.679 156.308 191.386 156.308C192.834 156.308 193.864 156.735 194.476 157.593C195.087 158.45 195.393 159.486 195.393 160.707C195.393 162.32 194.936 163.671 194.023 164.766C193.109 165.861 191.839 166.41 190.209 166.41C188.835 166.41 187.824 166.011 187.174 165.213C186.523 164.414 186.202 163.371 186.202 162.078ZM187.879 161.992C187.879 162.936 188.057 163.699 188.409 164.288C188.765 164.877 189.416 165.169 190.368 165.169C191.545 165.169 192.4 164.73 192.939 163.853C193.473 162.976 193.744 161.94 193.744 160.75C193.744 159.806 193.562 159.039 193.202 158.442C192.838 157.849 192.176 157.549 191.208 157.549C190.105 157.549 189.276 157.964 188.719 158.79C188.161 159.616 187.882 160.683 187.882 161.992H187.879Z" fill="white"/>
<path d="M236.504 152.043C237.847 152.043 238.85 152.32 239.516 152.869C240.178 153.423 240.511 154.146 240.511 155.047C240.511 155.948 240.244 156.691 239.706 157.32C239.171 157.952 238.509 158.34 237.724 158.486L237.7 158.573C238.622 158.719 239.299 159.087 239.737 159.683C240.174 160.28 240.395 160.976 240.395 161.774C240.395 162.98 239.942 164.015 239.036 164.889C238.13 165.758 236.833 166.193 235.141 166.193H228.463L228.598 164.802H230.387L231.634 153.439H229.845L230.004 152.047H236.5L236.504 152.043ZM235.01 164.798C236.109 164.798 237 164.537 237.669 164.015C238.339 163.493 238.676 162.762 238.676 161.818C238.676 160.296 237.816 159.533 236.094 159.533H232.563L231.974 164.802H235.01V164.798ZM235.552 158.225C236.489 158.225 237.259 157.984 237.871 157.498C238.482 157.012 238.788 156.348 238.788 155.506C238.788 154.751 238.556 154.217 238.087 153.905C237.619 153.593 236.969 153.439 236.14 153.439H233.221L232.702 158.229H235.555L235.552 158.225Z" fill="white"/>
<path d="M255.904 156.506C255.753 157.016 255.618 157.514 255.498 158.008C255.378 158.502 255.285 159.004 255.227 159.509L254.503 164.952H256.02L255.931 165.821L255.455 166.193H253.078L253.124 164.232C252.791 164.813 252.358 165.319 251.824 165.754C251.289 166.189 250.573 166.406 249.683 166.406C248.579 166.406 247.743 166.035 247.17 165.296C246.597 164.557 246.311 163.561 246.311 162.316C246.311 161.49 246.458 160.608 246.752 159.671C247.046 158.735 247.534 157.94 248.211 157.288C248.889 156.636 249.81 156.308 250.972 156.308C252.513 156.308 253.508 156.917 253.961 158.138C254.023 157.861 254.088 157.589 254.166 157.324C254.239 157.055 254.325 156.782 254.414 156.506H255.908H255.904ZM251.127 157.553C250.298 157.553 249.656 157.798 249.203 158.292C248.75 158.786 248.428 159.383 248.239 160.086C248.049 160.79 247.956 161.454 247.956 162.078C247.956 164.138 248.688 165.169 250.151 165.169C250.98 165.169 251.673 164.841 252.222 164.189C252.772 163.537 253.132 162.877 253.299 162.209L253.593 160.075C253.577 159.347 253.345 158.747 252.892 158.268C252.439 157.79 251.851 157.549 251.127 157.549V157.553Z" fill="white"/>
<path d="M266.338 165.802L265.861 166.193H261.084L261.196 165.367L261.672 164.952H262.803L263.732 157.747H261.99L262.102 156.921L262.578 156.506H265.091L265.045 158.703C265.331 158.063 265.695 157.502 266.132 157.015C266.57 156.529 267.096 156.284 267.716 156.284C268.138 156.284 268.544 156.407 268.939 156.656L268.645 158.201C268.239 157.984 267.836 157.873 267.445 157.873C266.81 157.873 266.276 158.158 265.838 158.723C265.401 159.288 265.099 159.92 264.932 160.616L264.344 164.948H266.45L266.338 165.798V165.802Z" fill="white"/>
<path d="M301.607 164.798H303.396L304.642 153.435H302.854L303.013 152.043H309.013C310.628 152.043 311.816 152.383 312.579 153.067C313.342 153.751 313.721 154.605 313.721 155.636C313.721 157.901 312.536 159.328 310.167 159.924L312.227 164.802H314.039L313.857 166.193H311.003L308.603 160.272H305.479L304.979 164.802H306.927L306.791 166.193H301.472L301.607 164.802V164.798ZM308.239 158.944C309.598 158.944 310.566 158.64 311.147 158.031C311.727 157.423 312.018 156.668 312.018 155.767C312.018 154.213 310.895 153.439 308.646 153.439H306.222L305.634 158.944H308.235H308.239Z" fill="white"/>
<path d="M319.265 162.078C319.265 160.557 319.702 159.213 320.577 158.051C321.452 156.889 322.741 156.308 324.449 156.308C325.897 156.308 326.926 156.735 327.538 157.593C328.15 158.45 328.456 159.486 328.456 160.707C328.456 162.32 327.999 163.671 327.085 164.766C326.171 165.861 324.902 166.41 323.272 166.41C321.897 166.41 320.887 166.011 320.236 165.213C319.586 164.414 319.265 163.371 319.265 162.078ZM320.941 161.992C320.941 162.936 321.119 163.699 321.471 164.288C321.828 164.877 322.478 165.169 323.43 165.169C324.607 165.169 325.463 164.73 326.001 163.853C326.535 162.976 326.806 161.94 326.806 160.75C326.806 159.806 326.624 159.039 326.264 158.442C325.9 157.849 325.238 157.549 324.271 157.549C323.167 157.549 322.339 157.964 321.781 158.79C321.224 159.616 320.945 160.683 320.945 161.992H320.941Z" fill="white"/>
<path d="M334.229 162.078C334.229 160.557 334.666 159.213 335.541 158.051C336.416 156.889 337.705 156.308 339.412 156.308C340.86 156.308 341.89 156.735 342.502 157.593C343.114 158.45 343.419 159.486 343.419 160.707C343.419 162.32 342.963 163.671 342.049 164.766C341.135 165.861 339.865 166.41 338.236 166.41C336.861 166.41 335.851 166.011 335.2 165.213C334.55 164.414 334.229 163.371 334.229 162.078ZM335.905 161.992C335.905 162.936 336.083 163.699 336.435 164.288C336.791 164.877 337.442 165.169 338.394 165.169C339.571 165.169 340.427 164.73 340.965 163.853C341.499 162.976 341.77 161.94 341.77 160.75C341.77 159.806 341.588 159.039 341.228 158.442C340.864 157.849 340.202 157.549 339.234 157.549C338.131 157.549 337.302 157.964 336.745 158.79C336.187 159.616 335.909 160.683 335.909 161.992H335.905Z" fill="white"/>
<path d="M355.029 151C355.467 151 355.881 151.043 356.276 151.13C356.667 151.217 357.062 151.399 357.453 151.676L357.588 153.941L356.299 154.095L356.075 152.439C355.877 152.352 355.668 152.292 355.44 152.265C355.215 152.237 355.018 152.221 354.851 152.221C353.732 152.221 353.078 153.004 352.881 154.573L352.633 156.51H355.575L355.463 157.292L354.944 157.751H352.478L351.231 167.458C351.08 168.544 350.759 169.418 350.267 170.07C349.776 170.722 349.001 171.05 347.948 171.05C347.193 171.05 346.555 170.845 346.036 170.43C345.517 170.015 345.262 169.315 345.277 168.331L346.524 167.983C346.493 168.782 346.636 169.284 346.953 169.497C347.271 169.706 347.573 169.813 347.859 169.813C348.432 169.813 348.854 169.608 349.125 169.193C349.396 168.778 349.586 168.197 349.691 167.442L350.937 157.755H349.013L349.102 156.948L349.621 156.514H351.092L351.34 154.64C351.642 152.217 352.873 151.004 355.029 151.004V151Z" fill="white"/>
<path d="M360.148 156.94L360.667 156.506H361.914L362.231 153.893L362.773 153.391H363.838L363.431 156.506H366.873L366.761 157.288L366.242 157.747H363.277L362.599 163.209C362.448 164.513 362.862 165.169 363.846 165.169C364.179 165.169 364.485 165.062 364.763 164.853C365.042 164.644 365.301 164.13 365.545 163.319L366.676 163.691C366.42 164.636 366.06 165.323 365.6 165.758C365.139 166.193 364.492 166.41 363.664 166.41C362.727 166.41 362.03 166.134 361.569 165.584C361.109 165.031 360.938 164.284 361.058 163.343L361.759 157.751H360.04L360.152 156.944L360.148 156.94Z" fill="white"/>
<path d="M372.076 162.078C372.076 160.557 372.514 159.213 373.389 158.051C374.264 156.889 375.553 156.308 377.26 156.308C378.708 156.308 379.738 156.735 380.35 157.593C380.961 158.45 381.267 159.486 381.267 160.707C381.267 162.32 380.81 163.671 379.897 164.766C378.983 165.861 377.713 166.41 376.083 166.41C374.709 166.41 373.698 166.011 373.048 165.213C372.398 164.414 372.076 163.371 372.076 162.078ZM373.753 161.992C373.753 162.936 373.931 163.699 374.283 164.288C374.639 164.877 375.29 165.169 376.242 165.169C377.419 165.169 378.274 164.73 378.813 163.853C379.347 162.976 379.618 161.94 379.618 160.75C379.618 159.806 379.436 159.039 379.076 158.442C378.712 157.849 378.05 157.549 377.082 157.549C375.979 157.549 375.15 157.964 374.593 158.79C374.035 159.616 373.756 160.683 373.756 161.992H373.753Z" fill="white"/>
<path d="M390.912 170.438L390.412 170.829H385.635L385.747 170.003L386.2 169.588H387.241L388.736 157.747H386.994L387.106 156.921L387.582 156.506H390.184L390.114 158.509C390.447 157.913 390.888 157.399 391.438 156.964C391.988 156.529 392.7 156.312 393.579 156.312C394.725 156.312 395.608 156.691 396.227 157.442C396.847 158.197 397.156 159.189 397.156 160.422C397.156 161.248 397.005 162.126 396.703 163.055C396.401 163.983 395.902 164.774 395.209 165.426C394.516 166.078 393.579 166.406 392.402 166.406C390.923 166.406 389.913 165.869 389.367 164.794L388.755 169.584H390.997L390.908 170.434L390.912 170.438ZM392.294 165.169C393.107 165.169 393.746 164.92 394.206 164.418C394.667 163.916 394.996 163.312 395.19 162.6C395.387 161.889 395.484 161.237 395.484 160.64C395.484 158.581 394.706 157.549 393.153 157.549C392.294 157.549 391.589 157.865 391.035 158.498C390.486 159.13 390.118 159.778 389.936 160.446L389.665 162.6C389.665 163.312 389.905 163.916 390.389 164.418C390.873 164.92 391.504 165.169 392.29 165.169H392.294Z" fill="white"/>
<path d="M284.506 162.723C285.788 162.723 286.828 161.723 286.828 160.49C286.828 159.256 285.788 158.257 284.506 158.257C283.223 158.257 282.183 159.256 282.183 160.49C282.183 161.723 283.223 162.723 284.506 162.723Z" fill="white"/>
<path d="M212.108 162.723C213.391 162.723 214.431 161.723 214.431 160.49C214.431 159.256 213.391 158.257 212.108 158.257C210.825 158.257 209.785 159.256 209.785 160.49C209.785 161.723 210.825 162.723 212.108 162.723Z" fill="white"/>
<defs>
<clipPath id="clip0_119_97">
<rect width="123" height="14" fill="white" transform="translate(202 186)"/>
</clipPath>
</defs>
</svg>
