<svg width="18" height="26" viewBox="0 0 18 26" fill="none" xmlns="http://www.w3.org/2000/svg">
<g clip-path="url(#clip0_95_463)">
<path d="M16.6146 5.25014C16.6102 5.23656 16.6049 5.22388 16.5988 5.2112C16.0809 4.17326 15.3799 3.26575 14.5151 2.51402C13.6502 1.76228 12.6662 1.20346 11.5875 0.852957C11.5717 0.847523 11.5551 0.8439 11.5393 0.842089C10.7174 0.583964 9.86565 0.452637 9.0078 0.452637C8.99553 0.452637 8.98239 0.452637 8.97012 0.452637C6.44213 0.452637 4.06573 1.60378 2.44816 3.61354C2.44816 3.61354 2.44641 3.61535 2.44641 3.61626C1.14255 5.2112 0.429277 7.24088 0.438915 9.32943C0.425772 10.7722 0.707925 12.1715 1.27837 13.4884C1.27837 13.4884 1.27837 13.4893 1.27837 13.4902C1.94081 15.0517 3.05278 16.479 4.03418 17.7389C4.39257 18.199 4.73081 18.6337 5.03399 19.054C5.041 19.0657 5.04801 19.0775 5.05677 19.0884C5.72886 19.9741 6.34749 20.9161 6.89428 21.8888C7.30962 22.7248 7.64435 23.6069 7.89058 24.5117C7.89233 24.5181 7.89408 24.5253 7.89671 24.5316C8.11227 25.1584 8.37164 25.546 9.00254 25.546C9.6869 25.546 9.95152 25.0026 10.1049 24.5298C10.1066 24.5253 10.1075 24.5199 10.1093 24.5153C10.3502 23.6305 10.6762 22.7655 11.0766 21.9459C11.8767 20.5411 12.7958 19.1952 13.807 17.9472C14.8533 16.6692 15.7856 15.2799 16.5778 13.819C16.5813 13.8136 16.5839 13.8072 16.5865 13.8018C17.2288 12.4197 17.5653 10.8782 17.56 9.34754C17.5688 7.9283 17.2411 6.51269 16.6137 5.25105L16.6146 5.25014ZM15.9653 5.31535L12.4339 9.66454C12.4488 9.53864 12.4567 9.41184 12.4594 9.28505C12.4594 9.28233 12.4594 9.27961 12.4594 9.2769C12.4506 8.32862 12.0887 7.43741 11.4385 6.7681C10.7892 6.09879 9.92611 5.72654 9.00867 5.7202C9.00692 5.7202 9.00429 5.7202 9.00254 5.7202C8.67745 5.72473 8.3585 5.77545 8.05181 5.86693L11.5954 1.51503C12.5225 1.84289 13.3733 2.33921 14.1251 2.99313C14.8769 3.64705 15.4947 4.42686 15.9653 5.31445V5.31535ZM11.1914 11.1952C11.1914 11.1952 11.1879 11.2006 11.1862 11.2033C10.6359 11.8618 9.83936 12.2422 8.99728 12.2467C8.24108 12.2503 7.52605 11.9487 6.98803 11.3981C6.45002 10.8474 6.15121 10.112 6.14771 9.32943V9.30859C6.15647 8.61754 6.39131 7.93917 6.80665 7.39847C6.80753 7.39666 6.80928 7.39485 6.81016 7.39303C7.3657 6.74093 8.16572 6.35963 9.00692 6.34695C9.76313 6.35329 10.4738 6.66032 11.0092 7.21189C11.5446 7.76347 11.8434 8.49709 11.8512 9.2778C11.8381 9.96885 11.6041 10.6499 11.1914 11.1934V11.1952ZM8.97187 1.08029C8.98326 1.08029 8.99553 1.08029 9.00692 1.08029C9.66499 1.08029 10.3187 1.16271 10.9566 1.32573L6.53151 6.75904L3.10974 3.7829C4.60375 2.06116 6.72253 1.07938 8.97187 1.07938V1.08029ZM1.04528 9.32852C1.03652 7.49266 1.62887 5.70662 2.71893 4.26383L6.14245 7.24088L1.64464 12.7666C1.23631 11.6698 1.03477 10.5168 1.04616 9.33305C1.04616 9.33124 1.04616 9.33033 1.04616 9.32852H1.04528ZM1.91102 13.4132L5.56587 8.92367C5.55185 9.04956 5.54309 9.17636 5.54134 9.30316V9.33124C5.54572 10.2822 5.90761 11.1734 6.5613 11.8427C7.2106 12.5075 8.07021 12.8734 8.98414 12.8734C8.9894 12.8734 8.99553 12.8734 9.00079 12.8734C9.31975 12.8716 9.63257 12.8254 9.93312 12.7376L5.31351 18.3937C5.06115 18.0541 4.79039 17.7072 4.50824 17.3449C3.58817 16.1639 2.54981 14.8325 1.9119 13.4123L1.91102 13.4132ZM16.0441 13.521C15.2721 14.9439 14.3635 16.2961 13.3426 17.5432C12.3069 18.8221 11.3667 20.1988 10.5483 21.637C10.5447 21.6425 10.5421 21.6488 10.5395 21.6542C10.1198 22.511 9.7789 23.414 9.52654 24.3387C9.36706 24.8278 9.21898 24.9202 9.00167 24.9202C8.7975 24.9202 8.67395 24.9202 8.47066 24.3324C8.21304 23.3886 7.86254 22.4685 7.42967 21.5963C7.42704 21.5917 7.42441 21.5863 7.42178 21.5818C6.90129 20.6561 6.3177 19.7586 5.6868 18.9081L11.6593 11.5955C11.6655 11.5882 11.6707 11.581 11.676 11.5729L16.257 5.93033C16.7206 6.99996 16.9607 8.17013 16.9537 9.34573C16.9589 10.7822 16.6435 12.225 16.0441 13.5201V13.521Z" fill="white"/>
<path d="M9.00295 26C8.06273 26 7.70697 25.3343 7.48353 24.684C7.47827 24.6704 7.47389 24.6541 7.46951 24.6387C7.23117 23.7638 6.90871 22.9134 6.51001 22.1073C5.97462 21.1563 5.37001 20.2352 4.71194 19.3694C4.69792 19.3512 4.68478 19.3313 4.67076 19.3087C4.37458 18.8975 4.04336 18.4727 3.69286 18.0235C2.69656 16.7446 1.56707 15.2964 0.88096 13.6834L0.867816 13.6535C0.278097 12.2822 -0.0136954 10.8259 -0.000551585 9.32511C-0.0101904 7.13512 0.739883 5.00219 2.11034 3.32393L2.11735 3.31578C3.81641 1.20911 6.31373 0 8.96966 0H9.00558C9.89849 0 10.7844 0.13495 11.6396 0.40032C11.6668 0.405755 11.6939 0.413 11.7193 0.421152C12.8515 0.788867 13.8872 1.37667 14.7967 2.16735C15.7063 2.95802 16.4423 3.91263 16.9874 5.0031C16.997 5.02303 17.0067 5.04295 17.0145 5.06469C17.6673 6.38611 18.0073 7.86693 17.9986 9.34957C18.0038 10.9445 17.6525 12.553 16.9812 13.9976C16.9751 14.0103 16.9681 14.0257 16.9593 14.0411C16.1541 15.5265 15.206 16.9394 14.1404 18.2399C13.1485 19.4645 12.2468 20.785 11.4608 22.1634C11.0753 22.9541 10.7625 23.7865 10.5303 24.6387C10.5268 24.6514 10.5233 24.6623 10.5197 24.6731C10.4128 25.0028 10.0886 26 9.0012 26H9.00295ZM8.88904 24.194C8.93899 24.3371 8.97579 24.4177 8.99945 24.4612C9.02048 24.4268 9.05903 24.3534 9.1081 24.2031C9.36747 23.2548 9.71798 22.3283 10.1482 21.4488C10.1561 21.4334 10.1631 21.4199 10.1701 21.4072C11.0008 19.9472 11.9551 18.5497 13.0066 17.2518C14.0072 16.03 14.8975 14.705 15.6546 13.312C16.2224 12.0812 16.5203 10.7108 16.516 9.34775C16.5212 8.48734 16.3854 7.62239 16.119 6.80545L12.0216 11.852C12.0129 11.8647 12.0032 11.8765 11.9936 11.8892L6.24801 18.9237C6.81144 19.7045 7.33281 20.5214 7.80161 21.3547C7.80774 21.3646 7.81388 21.3764 7.81914 21.3882C8.26427 22.2839 8.62354 23.2276 8.88904 24.1949V24.194ZM2.42842 13.4805C3.05144 14.7575 4.00305 15.9775 4.84776 17.0616C5.0125 17.2736 5.17197 17.4773 5.32444 17.6766L8.87853 13.3247C7.88748 13.2984 6.95865 12.8881 6.25152 12.1645C5.6951 11.5948 5.32532 10.8811 5.17635 10.1031L2.42755 13.4796L2.42842 13.4805ZM2.7947 4.92249C1.9386 6.21221 1.47594 7.75915 1.48295 9.32692V9.33326C1.47506 10.1964 1.58547 11.0423 1.81066 11.8584L5.52423 7.29634L2.7947 4.92249ZM7.14968 7.68036L7.14617 7.68489C6.79392 8.14317 6.59413 8.72373 6.58537 9.31515V9.32873C6.58888 9.9899 6.84036 10.6103 7.29601 11.0767C7.75079 11.5423 8.35365 11.7941 8.99507 11.7941C9.70308 11.7895 10.376 11.4716 10.8431 10.921C10.8431 10.9201 10.8448 10.9191 10.8457 10.9173L10.8475 10.9155C11.2006 10.45 11.4021 9.86853 11.4144 9.27711C11.4056 8.61776 11.1524 7.99916 10.7011 7.53363C10.249 7.0672 9.64788 6.80726 9.00996 6.80092C8.3002 6.81269 7.62461 7.13331 7.15143 7.68036H7.14968ZM9.10986 5.26938C10.1053 5.30198 11.0385 5.7177 11.7465 6.4477C12.2959 7.01376 12.6622 7.72021 12.8155 8.48915L15.432 5.26666C15.0088 4.53848 14.4743 3.8909 13.8416 3.34023C13.2081 2.78956 12.5001 2.35573 11.7325 2.0487L9.10986 5.26847V5.26938ZM3.74718 3.74689L6.47759 6.12164L10.143 1.6203C9.76705 1.56234 9.38675 1.53245 9.00646 1.53245H8.97141C7.01211 1.53245 5.13342 2.334 3.74806 3.74689H3.74718Z" fill="white"/>
</g>
<defs>
<clipPath id="clip0_95_463">
<rect width="18" height="26" fill="white"/>
</clipPath>
</defs>
</svg>
