<svg width="22" height="22" viewBox="0 0 22 22" fill="none" xmlns="http://www.w3.org/2000/svg">
<path d="M11.0022 22C8.94772 22 6.95688 21.4332 5.22352 20.358L2.50177 21.2279C2.07823 21.3632 1.62086 21.2507 1.30848 20.9339C0.996089 20.6172 0.889951 20.1582 1.03124 19.7363L1.89408 17.1629C0.653568 15.3434 0 13.2204 0 11.0002C0 4.93457 4.93323 0 10.9968 0H11.0018C17.0661 0 21.9997 4.93457 21.9997 11.0002C21.9997 17.0658 17.0661 22.0003 11.0018 22.0003L11.0022 22ZM5.4214 18.8889L5.68892 19.066C7.26525 20.1093 9.10241 20.6607 11.0022 20.6607C16.3278 20.6607 20.6607 16.3268 20.6607 10.9998C20.6607 5.67285 16.3278 1.33928 11.0022 1.33928H10.9972C5.67185 1.33928 1.33961 5.67319 1.33961 11.0002C1.33961 13.0523 1.97544 15.0096 3.17811 16.6603L3.38168 16.9399L2.40468 19.8531L5.4214 18.8892V18.8889ZM14.3912 17.4535C13.743 17.4535 12.8149 17.2623 11.1103 16.5558C9.69772 15.9706 8.04036 14.6842 6.67697 13.1149C5.79975 12.1051 4.32821 10.1343 4.32821 8.27909C4.32821 7.45911 4.56895 6.61805 4.98848 5.97185C5.5108 5.16727 6.26448 4.72431 7.11023 4.72431C7.46581 4.72431 7.77317 4.72431 8.05777 4.85756C8.42708 5.03033 8.59917 5.34506 8.73042 5.65946C8.79504 5.81515 8.88243 6.02742 8.97819 6.26012C9.20855 6.8186 9.59392 7.75376 9.64582 7.86458C9.83801 8.26569 9.83834 8.68656 9.64582 9.07931C9.50854 9.35955 9.29861 9.58187 9.09605 9.79683C8.99828 9.90028 8.90587 9.99839 8.82451 10.0992C9.06993 10.4996 9.59593 11.2811 10.3004 11.9082C11.272 12.774 12.0569 13.0911 12.4339 13.2435C12.472 13.2589 12.5059 13.2726 12.5353 13.285C12.5413 13.2877 12.547 13.2893 12.5524 13.2907C12.7188 13.1005 12.9381 12.7931 13.1504 12.4951C13.1892 12.4406 13.2284 12.3857 13.2676 12.3307C13.6305 11.8178 14.1997 11.6447 14.7907 11.8677C14.9869 11.9413 15.7285 12.2882 16.1959 12.5156C17.5372 13.1671 17.6601 13.2994 17.7696 13.4919C18.0146 13.9205 17.8764 14.8225 17.644 15.4804C17.3062 16.437 16.1216 17.1552 15.1261 17.3701C14.9068 17.4167 14.6758 17.4538 14.3906 17.4538L14.3912 17.4535ZM7.11057 6.06359C6.16905 6.06359 5.66749 7.3503 5.66749 8.27909C5.66749 10.5472 9.13221 14.2864 11.6229 15.3183C13.8977 16.2612 14.4686 16.1403 14.8466 16.0603C15.5099 15.917 16.2428 15.4275 16.3817 15.0341C16.509 14.6741 16.5495 14.3802 16.5592 14.2034C16.0245 13.9044 14.6186 13.2415 14.3427 13.1303C14.3089 13.1778 14.275 13.225 14.2412 13.2723C13.976 13.6442 13.7256 13.9958 13.4976 14.2426L13.4946 14.2456C13.1316 14.6333 12.5537 14.7418 12.0217 14.5218C11.9942 14.5104 11.9648 14.4984 11.9323 14.4853C11.5201 14.3189 10.5545 13.9288 9.40944 12.9083C8.52284 12.1191 7.89672 11.1649 7.60275 10.6667L7.60074 10.663C7.18824 9.95386 7.6369 9.42852 7.78422 9.25576L7.78489 9.25475C7.89806 9.11513 8.01692 8.98924 8.12172 8.87808C8.24293 8.74951 8.4244 8.55732 8.45018 8.47496C8.44851 8.46926 8.44482 8.45822 8.43712 8.44181C8.38389 8.32998 8.17898 7.83612 7.74003 6.77072C7.64427 6.53869 7.55722 6.32709 7.4936 6.17341C7.47451 6.12787 7.45911 6.09439 7.44739 6.07062C7.35666 6.06392 7.20833 6.06392 7.11023 6.06392L7.11057 6.06359Z" fill="white"/>
</svg>
