<svg width="20" height="20" viewBox="0 0 20 20" fill="none" xmlns="http://www.w3.org/2000/svg">
<g clip-path="url(#clip0_95_458)">
<path d="M14.8869 3.68213C14.2361 3.68213 13.748 4.18422 13.748 4.85368C13.748 5.52313 14.2361 6.02523 14.8869 6.02523C15.5377 6.02523 16.0258 5.52313 16.0258 4.85368C16.0258 4.18422 15.5377 3.68213 14.8869 3.68213Z" fill="white"/>
<path d="M9.76153 5.18848C7.077 5.18848 4.96191 7.44789 4.96191 10.1257C4.96191 12.8035 7.15835 15.063 9.76153 15.063C12.3647 15.063 14.5611 12.8035 14.5611 10.1257C14.5611 7.44789 12.4461 5.18848 9.76153 5.18848ZM9.76153 13.3056C8.05319 13.3056 6.67025 11.883 6.67025 10.1257C6.67025 8.36839 8.05319 6.9458 9.76153 6.9458C11.4699 6.9458 12.8528 8.36839 12.8528 10.1257C12.8528 11.883 11.4699 13.3056 9.76153 13.3056Z" fill="white"/>
<path d="M13.6667 0H5.9385C2.60318 0 0 2.67782 0 6.0251V13.9749C0 17.3222 2.60318 20 5.85715 20H13.5853C16.8393 20 19.4425 17.3222 19.4425 13.9749V6.0251C19.5238 2.67782 16.9207 0 13.6667 0ZM17.6528 14.0586C17.6528 16.318 15.8631 18.2427 13.5853 18.2427H5.85715C3.66072 18.2427 1.78969 16.4017 1.78969 14.0586V6.10879C1.78969 3.84937 3.57937 1.92469 5.85715 1.92469H13.5853C15.7818 1.92469 17.6528 3.76569 17.6528 6.10879V14.0586Z" fill="white"/>
</g>
<defs>
<clipPath id="clip0_95_458">
<rect width="19.4444" height="20" fill="white"/>
</clipPath>
</defs>
</svg>
