<svg width="141" height="136" viewBox="0 0 141 136" fill="none" xmlns="http://www.w3.org/2000/svg">
<g clip-path="url(#clip0_95_283)">
<path d="M45.3491 128.306H48.0483L47.9741 129.053H47.2037L46.7928 132.771C46.7272 133.308 46.5817 133.822 46.3563 134.316C46.1337 134.81 45.7857 135.213 45.312 135.528C44.8384 135.844 44.1964 136 43.3861 136C42.2163 136 41.4317 135.688 41.0294 135.063C40.627 134.438 40.473 133.717 40.5643 132.901L41.0008 129.053H40.1934L40.2675 128.306H43.0665L42.9667 129.053H41.8853L41.463 132.876C41.3803 133.623 41.5001 134.202 41.8225 134.614C42.145 135.026 42.6956 135.23 43.4774 135.23C44.944 135.23 45.7742 134.409 45.9654 132.771L46.3763 129.053H45.2692L45.3548 128.306H45.3491Z" fill="white"/>
<path d="M50.87 128.073L51.1325 127.863H52.6732L52.1625 131.723C52.3537 131.413 52.5933 131.146 52.8844 130.925C53.1754 130.703 53.5549 130.593 54.0285 130.593C54.6676 130.593 55.1527 130.794 55.4893 131.198C55.826 131.601 55.9915 132.135 55.9915 132.794C55.9915 133.237 55.9116 133.708 55.749 134.205C55.5864 134.702 55.3153 135.125 54.9358 135.475C54.5535 135.824 54.0399 136 53.3951 136C52.5077 136 51.9371 135.676 51.6803 135.032C51.6461 135.171 51.609 135.313 51.569 135.452C51.5291 135.591 51.4863 135.736 51.4435 135.884H50.6104C50.676 135.659 50.7445 135.412 50.8158 135.148C50.8871 134.884 50.9385 134.623 50.9699 134.367L51.7288 128.528H50.8072L50.87 128.073ZM53.3209 135.336C53.7689 135.336 54.1198 135.202 54.3766 134.932C54.6334 134.665 54.816 134.339 54.9244 133.958C55.0328 133.578 55.087 133.228 55.087 132.91C55.087 131.805 54.6591 131.254 53.8059 131.254C53.3323 131.254 52.9414 131.425 52.6304 131.768C52.3194 132.112 52.1197 132.464 52.0284 132.831L51.88 133.961C51.88 134.35 52.0141 134.677 52.2852 134.941C52.5534 135.205 52.9015 135.338 53.3238 135.338L53.3209 135.336Z" fill="white"/>
<path d="M64.785 135.219L64.7223 135.662L64.4484 135.884H63.0189L63.0303 134.893C62.8392 135.228 62.5938 135.492 62.297 135.691C61.9975 135.889 61.6323 135.989 61.2014 135.989C60.6707 135.989 60.2513 135.833 59.946 135.517C59.6379 135.202 59.5266 134.702 59.6093 134.021L59.9574 131.362H59.0244L59.0872 130.897L59.3611 130.698H60.8904L60.491 133.788C60.4168 134.339 60.4681 134.734 60.645 134.972C60.8219 135.211 61.1244 135.327 61.5467 135.327C61.9689 135.327 62.337 135.191 62.5966 134.918C62.8563 134.645 63.0303 134.33 63.1131 133.972L63.5496 130.698H64.3942L63.8093 135.222H64.7793L64.785 135.219Z" fill="white"/>
<path d="M71.313 128.073L71.5755 127.863H73.4786L72.5085 135.219H73.4529L73.4044 135.685L73.1305 135.884H71.7124L71.7381 134.821C71.5384 135.14 71.2787 135.415 70.962 135.651C70.6425 135.884 70.243 136 69.7608 136C69.156 136 68.6966 135.801 68.3799 135.407C68.066 135.009 67.9062 134.486 67.9062 133.833C67.9062 133.382 67.9947 132.904 68.1687 132.399C68.3428 131.893 68.6224 131.467 69.0076 131.118C69.3928 130.769 69.9035 130.593 70.5426 130.593C71.3387 130.593 71.8722 130.879 72.1461 131.456L72.5313 128.531H71.2616L71.3101 128.076L71.313 128.073ZM70.6282 131.257C70.1717 131.257 69.8122 131.388 69.5468 131.649C69.2815 131.91 69.0932 132.231 68.9819 132.612C68.8706 132.992 68.8136 133.365 68.8136 133.731C68.8136 134.804 69.2187 135.341 70.0319 135.341C70.5055 135.341 70.905 135.154 71.2388 134.776C71.5698 134.398 71.7781 134.029 71.8608 133.663L72.0092 132.544C71.9921 132.172 71.8551 131.865 71.5926 131.624C71.3301 131.382 71.0105 131.263 70.6282 131.263V131.257Z" fill="white"/>
<path d="M92.2645 128.306C93.0035 128.306 93.5542 128.454 93.9194 128.75C94.2846 129.045 94.4672 129.434 94.4672 129.914C94.4672 130.394 94.3188 130.794 94.0249 131.132C93.7311 131.47 93.3687 131.678 92.9379 131.757L92.9265 131.803C93.4315 131.879 93.8052 132.078 94.0449 132.396C94.2846 132.714 94.4044 133.089 94.4044 133.515C94.4044 134.16 94.1562 134.717 93.6597 135.182C93.1633 135.648 92.45 135.881 91.5198 135.881H87.8506L87.9248 135.134H88.9063L89.591 129.048H88.6095L88.698 128.301H92.2674L92.2645 128.306ZM91.4456 135.14C92.0505 135.14 92.5384 135.001 92.9065 134.719C93.2745 134.438 93.46 134.046 93.46 133.541C93.46 132.726 92.9864 132.317 92.042 132.317H90.1018L89.7794 135.137H91.4456V135.14ZM91.7424 131.618C92.2559 131.618 92.6811 131.487 93.0178 131.226C93.3544 130.965 93.5228 130.61 93.5228 130.158C93.5228 129.755 93.3944 129.468 93.1376 129.3C92.8808 129.133 92.5241 129.051 92.0676 129.051H90.4641L90.1788 131.615H91.7452L91.7424 131.618Z" fill="white"/>
<path d="M102.921 130.698C102.838 130.971 102.764 131.237 102.699 131.502C102.633 131.766 102.582 132.036 102.55 132.305L102.154 135.219H102.987L102.938 135.685L102.676 135.884H101.369L101.395 134.836C101.212 135.145 100.972 135.418 100.679 135.651C100.385 135.884 99.9938 136 99.503 136C98.8981 136 98.4388 135.801 98.1221 135.407C97.8082 135.009 97.6484 134.478 97.6484 133.811C97.6484 133.368 97.7283 132.896 97.891 132.393C98.0536 131.894 98.3189 131.468 98.6927 131.118C99.0665 130.769 99.5715 130.593 100.211 130.593C101.055 130.593 101.603 130.919 101.851 131.573C101.885 131.425 101.923 131.28 101.962 131.135C102.005 130.99 102.051 130.846 102.099 130.698H102.921ZM100.299 131.257C99.8426 131.257 99.4916 131.391 99.2434 131.655C98.9952 131.919 98.8183 132.24 98.7155 132.618C98.6128 132.995 98.5615 133.35 98.5615 133.686C98.5615 134.79 98.9638 135.341 99.7684 135.341C100.225 135.341 100.604 135.165 100.907 134.816C101.209 134.467 101.406 134.112 101.497 133.754L101.66 132.612C101.651 132.223 101.523 131.902 101.275 131.644C101.027 131.388 100.704 131.26 100.305 131.26L100.299 131.257Z" fill="white"/>
<path d="M106.428 128.085L106.676 127.863H108.257L107.298 135.219H108.217L108.154 135.685L107.892 135.884H106.362L107.321 128.528H106.362L106.425 128.085H106.428Z" fill="white"/>
<path d="M111.452 130.919L111.715 130.698H113.281L112.696 135.222H113.629L113.567 135.688L113.293 135.886H111.763L112.348 131.362H111.39L111.452 130.919ZM112.559 129.357L112.671 128.295H113.592L113.481 129.357H112.559Z" fill="white"/>
<path d="M80.8682 134.026C81.5725 134.026 82.1435 133.491 82.1435 132.83C82.1435 132.17 81.5725 131.635 80.8682 131.635C80.1638 131.635 79.5928 132.17 79.5928 132.83C79.5928 133.491 80.1638 134.026 80.8682 134.026Z" fill="white"/>
<path d="M133.413 0.318094L114.428 0.261292C113.124 0.258452 112.995 1.34052 113.9 2.15846C123.966 12.894 115.466 41.5958 110.747 57.4349C108.441 65.1514 105.942 73.1405 103.759 79.9085C102.213 73.2627 102.624 74.89 100.755 66.7532L92.1667 28.5144C88.8342 14.0044 89.0111 6.00961 92.1182 2.0903C93.1825 0.874749 93.1112 0.19597 91.8101 0.19313L67.9858 0.122128C66.9615 0.119288 67.107 1.34052 68.4594 2.69808C72.685 7.18256 77.3101 24.6774 78.2088 28.4746L78.9336 31.8657C74.3456 46.6227 68.0799 66.9293 64.114 79.792C62.5675 73.1462 62.9784 74.7736 61.1095 66.6368L56.8839 47.8212C56.6186 46.6426 57.0494 45.393 58.0338 44.6858C58.1936 44.5722 58.3562 44.4614 58.5245 44.3563L64.0683 40.8971C64.3536 40.7182 64.4934 40.3831 64.4221 40.0536C64.3508 39.727 64.0769 39.4799 63.7431 39.4402L57.4631 38.6592C57.175 38.6222 56.8896 38.574 56.61 38.5115C55.4374 38.2502 54.5272 37.3328 54.2647 36.1656L52.5214 28.4008C49.1888 13.8908 49.3657 5.89601 52.4729 1.9767C53.5371 0.761146 53.4658 0.0823672 52.1647 0.0795271L28.3376 4.94383e-06C27.3133 -0.00283513 27.4588 1.2184 28.8112 2.57596C33.0368 7.06044 37.6618 24.5553 38.5606 28.3525L40.9002 38.7728C41.1799 40.0167 40.6663 41.3033 39.6049 42.0133C37.6191 43.3396 34.6745 45.2765 34.6745 45.2765C34.4035 45.4526 34.2637 45.7764 34.3293 46.0945C34.3921 46.4126 34.6432 46.6597 34.9627 46.7193C34.9627 46.7193 38.669 47.435 41.0686 47.915C42.2726 48.1564 43.2199 49.0794 43.4853 50.2722L47.1516 66.5942C50.2245 80.4253 50.6982 83.0013 53.035 93.8504C53.1976 94.5292 53.5571 94.9353 54.0222 94.9381L61.469 94.9609C61.84 94.9609 62.3193 94.5576 62.4306 94.0151L65.3437 84.8104L80.0691 36.8841L86.797 66.7163C89.8699 80.5475 90.3435 83.1234 92.6803 93.9725C92.843 94.6513 93.2025 95.0574 93.6675 95.0603L101.114 95.083C101.485 95.083 101.965 94.6797 102.076 94.1372L122.325 28.6138C126.191 16.0237 129.475 6.81903 133.347 2.35727C134.314 1.2752 134.437 0.329454 133.416 0.323774L133.413 0.318094Z" fill="white"/>
<path d="M140.774 63.8279L137.576 61.9193C136.161 61.0758 135.216 59.6586 134.982 58.0341L134.429 54.1716C134.403 53.9842 134.263 53.8308 134.078 53.7854C133.892 53.7399 133.698 53.8081 133.587 53.9614L131.131 57.3042C130.28 58.4601 129.031 59.2241 127.61 59.457L123.707 60.0903C123.518 60.1216 123.367 60.2636 123.324 60.4482C123.281 60.6328 123.358 60.8259 123.515 60.9338L126.962 63.2968C128.166 64.1232 128.996 65.4183 129.242 66.8526L129.887 70.6185C129.918 70.8031 130.061 70.9536 130.243 70.9962C130.277 71.0047 130.315 71.0076 130.349 71.0076C130.497 71.0076 130.643 70.9366 130.731 70.8116L133.125 67.4632C133.984 66.2618 135.316 65.4524 136.78 65.2422L140.595 64.6913C140.792 64.6629 140.948 64.5152 140.986 64.322C141.026 64.1289 140.937 63.9301 140.766 63.8307L140.774 63.8279Z" fill="white"/>
<path d="M26.1122 19.9885L20.5456 19.2813C18.0832 18.9689 15.9205 17.5858 14.6137 15.4841L11.5066 10.4941C11.3554 10.2527 11.0729 10.1249 10.7876 10.1732C10.5051 10.2215 10.2797 10.4345 10.2169 10.7128L8.86165 16.7962C8.39372 18.9007 7.1326 20.707 5.31511 21.88L0.321988 25.1006C0.0794655 25.2568 -0.0403694 25.5437 0.0138416 25.8249C0.0680526 26.106 0.290603 26.3247 0.573071 26.3815L6.75883 27.5658C8.91872 27.9805 10.8532 29.267 12.0601 31.096L15.2357 35.8986C15.367 36.0974 15.5895 36.2139 15.8263 36.2139C15.8691 36.2139 15.9148 36.211 15.9576 36.2025C16.2372 36.1485 16.4569 35.9327 16.5168 35.6572L17.7865 29.6022C18.2402 27.4323 19.5869 25.5124 21.4785 24.3395L26.4032 21.2836C26.6571 21.1274 26.7827 20.8292 26.7199 20.5366C26.6571 20.2469 26.4146 20.0283 26.1207 19.9913L26.1122 19.9885Z" fill="white"/>
<path d="M104.578 36.1739C106.471 36.1739 108.005 34.6468 108.005 32.763C108.005 30.8792 106.471 29.3521 104.578 29.3521C102.686 29.3521 101.151 30.8792 101.151 32.763C101.151 34.6468 102.686 36.1739 104.578 36.1739Z" fill="white"/>
<path d="M32.4637 112.447H31.7133L29.2053 120.275H28.044L25.79 113.816H25.7187L23.536 120.275H22.3604L19.6955 112.447H18.9023V111.107H22.4032V112.447H21.3818L22.9682 117.693H23.0395L24.8684 112.447H24.061V111.107H27.5476V112.447H26.7972L28.6261 117.764H28.6974L30.1411 112.447H29.0084V111.107H32.4665V112.447H32.4637Z" fill="white"/>
<path d="M44.3932 115.677C44.3932 116.974 43.9738 118.088 43.1321 119.019C42.2904 119.951 41.1434 120.417 39.6883 120.417C38.2332 120.417 37.0862 119.951 36.273 119.019C35.4598 118.088 35.0547 116.983 35.0547 115.705C35.0547 114.427 35.4798 113.245 36.3301 112.334C37.1803 111.422 38.3131 110.965 39.7311 110.965C41.1491 110.965 42.3018 111.428 43.1378 112.354C43.9738 113.28 44.3904 114.387 44.3904 115.674L44.3932 115.677ZM42.6927 115.719C42.6927 114.694 42.4302 113.876 41.9052 113.265C41.3803 112.655 40.6527 112.348 39.7168 112.348C38.7353 112.348 37.9963 112.666 37.4999 113.299C37.0034 113.936 36.7552 114.722 36.7552 115.662C36.7552 116.602 36.9977 117.364 37.4856 118.031C37.9707 118.698 38.7296 119.034 39.7596 119.034C40.7326 119.034 41.4659 118.721 41.9566 118.096C42.4474 117.471 42.6927 116.679 42.6927 115.719Z" fill="white"/>
<path d="M57.2726 112.447H56.2112V120.275L55.3038 120.289L50.2023 113.927H50.1452V118.934H51.4919V120.275H47.6515V118.934H48.673V112.447H47.5117V111.107H49.82L54.679 117.171H54.736V112.447H53.3893V111.107H57.2726V112.447Z" fill="white"/>
<path d="M69.5986 115.662C69.5986 117.034 69.1877 118.147 68.366 118.997C67.5443 119.849 66.4059 120.272 64.9507 120.272H60.6709V118.931H61.7323V112.445H60.6709V111.104H64.8651C66.4144 111.104 67.5899 111.527 68.3917 112.374C69.1934 113.22 69.5957 114.316 69.5957 115.659L69.5986 115.662ZM67.9124 115.677C67.9124 113.524 66.8823 112.447 64.8223 112.447H63.3073V118.934H64.8223C66.8823 118.934 67.9124 117.849 67.9124 115.677Z" fill="white"/>
<path d="M79.8696 120.275H72.8564V118.934H73.9178V112.447H72.8564V111.107H79.7698L80.0522 113.76L78.7055 113.873L78.4231 112.447H75.49V114.986H79.5415V116.327H75.49V118.937H78.5229L78.8054 117.511L80.1521 117.625L79.8696 120.275Z" fill="white"/>
<path d="M91.8417 120.275H89.6875L87.7901 116.651H86.275V118.934H87.3507V120.275H83.6387V118.934H84.7001V112.447H83.6387V111.107H87.733C88.8743 111.107 89.7303 111.346 90.2981 111.82C90.8659 112.294 91.1483 112.959 91.1483 113.816C91.1483 114.427 90.9857 114.952 90.6604 115.39C90.3352 115.827 89.8843 116.14 89.308 116.327L90.7118 118.937H91.8445V120.278L91.8417 120.275ZM89.4763 113.856C89.4763 113.339 89.3251 112.976 89.0227 112.763C88.7202 112.55 88.2067 112.445 87.4791 112.445H86.275V115.393H87.4648C88.2209 115.393 88.7459 115.259 89.0369 114.989C89.3308 114.722 89.4763 114.342 89.4763 113.853V113.856Z" fill="white"/>
<path d="M101.788 120.275H94.9717V118.934H96.0331V112.447H94.9717V111.107H98.9804V112.447H97.6052V118.934H100.438L100.721 117.031L102.068 117.145L101.785 120.275H101.788Z" fill="white"/>
<path d="M114.213 120.275H110.687V118.934H111.623L111.155 117.679H107.711L107.214 118.934H108.247V120.275H104.761V118.934H105.611L108.387 112.447H107.04V111.107H110.002L113.318 118.934H114.211V120.275H114.213ZM110.727 116.537L109.523 113.351H109.437L108.162 116.537H110.727Z" fill="white"/>
<path d="M126.808 112.447H125.746V120.275L124.839 120.289L119.737 113.927H119.68V118.934H121.027V120.275H117.187V118.934H118.208V112.447H117.047V111.107H119.355L124.214 117.171H124.271V112.447H122.924V111.107H126.808V112.447Z" fill="white"/>
<path d="M139.134 115.662C139.134 117.034 138.723 118.147 137.901 118.997C137.079 119.849 135.941 120.272 134.486 120.272H130.206V118.931H131.267V112.445H130.206V111.104H134.4C135.95 111.104 137.125 111.527 137.927 112.374C138.729 113.22 139.131 114.316 139.131 115.659L139.134 115.662ZM137.448 115.677C137.448 113.524 136.417 112.447 134.357 112.447H132.842V118.934H134.357C136.417 118.934 137.448 117.849 137.448 115.677Z" fill="white"/>
</g>
<defs>
<clipPath id="clip0_95_283">
<rect width="141" height="136" fill="white"/>
</clipPath>
</defs>
</svg>
