<svg width="25" height="27" viewBox="0 0 25 27" fill="none" xmlns="http://www.w3.org/2000/svg">
<g clip-path="url(#clip0_95_427)">
<path d="M19.1401 4.9707C18.3033 4.9707 17.6758 5.64853 17.6758 6.55229C17.6758 7.45606 18.3033 8.13388 19.1401 8.13388C19.9768 8.13388 20.6044 7.45606 20.6044 6.55229C20.6044 5.64853 19.9768 4.9707 19.1401 4.9707Z" fill="#FF92E0"/>
<path d="M12.5508 7.00439C9.09927 7.00439 6.37988 10.0546 6.37988 13.6697C6.37988 17.2847 9.20387 20.3349 12.5508 20.3349C15.8978 20.3349 18.7217 17.2847 18.7217 13.6697C18.7217 10.0546 16.0023 7.00439 12.5508 7.00439ZM12.5508 17.9626C10.3544 17.9626 8.57631 16.0421 8.57631 13.6697C8.57631 11.2973 10.3544 9.37678 12.5508 9.37678C14.7472 9.37678 16.5253 11.2973 16.5253 13.6697C16.5253 16.0421 14.7472 17.9626 12.5508 17.9626Z" fill="#FF92E0"/>
<path d="M17.5715 0H7.63522C3.34694 0 0 3.61506 0 8.13389V18.8661C0 23.3849 3.34694 27 7.53062 27H17.4669C21.6505 27 24.9975 23.3849 24.9975 18.8661V8.13389C25.1021 3.61506 21.7551 0 17.5715 0ZM22.6965 18.9791C22.6965 22.0293 20.3954 24.6276 17.4669 24.6276H7.53062C4.70664 24.6276 2.30102 22.1423 2.30102 18.9791V8.24686C2.30102 5.19665 4.60205 2.59833 7.53062 2.59833H17.4669C20.2909 2.59833 22.6965 5.08368 22.6965 8.24686V18.9791Z" fill="#FF92E0"/>
</g>
<defs>
<clipPath id="clip0_95_427">
<rect width="25" height="27" fill="white"/>
</clipPath>
</defs>
</svg>
