<svg width="62" height="86" viewBox="0 0 62 86" fill="none" xmlns="http://www.w3.org/2000/svg">
<g clip-path="url(#clip0_95_446)">
<path fill-rule="evenodd" clip-rule="evenodd" d="M31 0C13.8791 0 0 13.7115 0 30.6279C0 45.0384 22.4971 76.1761 29.161 85.0833C30.0755 86.3052 31.9245 86.3052 32.839 85.0833C39.5029 76.1761 62 45.0395 62 30.6279C62 13.7115 48.1209 0 31 0Z" fill="#FF92E0"/>
<path d="M14.7542 34.1454L23.2476 35.5442C26.1523 36.0237 28.4246 38.3022 28.8989 41.219L30.292 49.7477C30.3644 50.1842 30.7398 50.505 31.1811 50.505C31.6224 50.505 31.9979 50.1842 32.0703 49.7477L33.4634 41.219C33.9409 38.3022 36.21 36.0237 39.1147 35.5442L47.6081 34.1454C48.0428 34.0726 48.3623 33.6956 48.3623 33.2525C48.3623 32.8093 48.0428 32.4324 47.6081 32.3596L39.1147 30.9607C36.21 30.4812 33.9409 28.2027 33.4634 25.286L32.0703 16.7573C31.9979 16.3208 31.6224 16 31.1811 16C30.7398 16 30.3644 16.3208 30.292 16.7573L28.8989 25.286C28.4214 28.2027 26.1523 30.4845 23.2476 30.9607L14.7542 32.3596C14.3195 32.4324 14 32.8093 14 33.2525C14 33.6956 14.3195 34.0726 14.7542 34.1454Z" fill="#FFEAF9"/>
</g>
<defs>
<clipPath id="clip0_95_446">
<rect width="62" height="86" fill="white"/>
</clipPath>
</defs>
</svg>
