<svg width="16" height="15" viewBox="0 0 16 15" fill="none" xmlns="http://www.w3.org/2000/svg">
<g clip-path="url(#clip0_148_185)">
<path d="M12.026 2.76154C11.5379 2.76154 11.1719 3.1381 11.1719 3.6402C11.1719 4.14229 11.5379 4.51886 12.026 4.51886C12.5141 4.51886 12.8802 4.14229 12.8802 3.6402C12.8802 3.1381 12.5141 2.76154 12.026 2.76154Z" fill="white"/>
<path d="M8.18272 3.89124C6.16932 3.89124 4.58301 5.5858 4.58301 7.59416C4.58301 9.60253 6.23033 11.2971 8.18272 11.2971C10.1351 11.2971 11.7824 9.60253 11.7824 7.59416C11.7824 5.5858 10.1961 3.89124 8.18272 3.89124ZM8.18272 9.9791C6.90146 9.9791 5.86426 8.91216 5.86426 7.59416C5.86426 6.27617 6.90146 5.20923 8.18272 5.20923C9.46397 5.20923 10.5012 6.27617 10.5012 7.59416C10.5012 8.91216 9.46397 9.9791 8.18272 9.9791Z" fill="white"/>
<path d="M11.1113 0H5.3152C2.81371 0 0.861328 2.00837 0.861328 4.51883V10.4812C0.861328 12.9916 2.81371 15 5.25419 15H11.0503C13.4908 15 15.4432 12.9916 15.4432 10.4812V4.51883C15.5042 2.00837 13.5518 0 11.1113 0ZM14.1009 10.5439C14.1009 12.2385 12.7587 13.682 11.0503 13.682H5.25419C3.60687 13.682 2.20359 12.3013 2.20359 10.5439V4.58159C2.20359 2.88703 3.54586 1.44351 5.25419 1.44351H11.0503C12.6977 1.44351 14.1009 2.82427 14.1009 4.58159V10.5439Z" fill="white"/>
</g>
<defs>
<clipPath id="clip0_148_185">
<rect width="14.5833" height="15" fill="white" transform="translate(0.861328)"/>
</clipPath>
</defs>
</svg>
