<svg width="13" height="18" viewBox="0 0 13 18" fill="none" xmlns="http://www.w3.org/2000/svg">
<g clip-path="url(#clip0_148_190)">
<path d="M11.9991 3.63489C11.996 3.62548 11.9922 3.6167 11.9877 3.60793C11.6137 2.88936 11.1074 2.26108 10.4828 1.74065C9.8582 1.22022 9.14751 0.833341 8.36847 0.590683C8.35708 0.58692 8.34506 0.584412 8.33366 0.583158C7.74005 0.404456 7.12492 0.313538 6.50536 0.313538C6.4965 0.313538 6.48701 0.313538 6.47815 0.313538C4.65238 0.313538 2.93609 1.11049 1.76785 2.50185C1.76785 2.50185 1.76658 2.50311 1.76658 2.50373C0.824902 3.60793 0.309762 5.01309 0.316723 6.45901C0.30723 7.45786 0.511008 8.42661 0.922993 9.3383C0.922993 9.3383 0.922993 9.33893 0.922993 9.33956C1.40143 10.4205 2.20451 11.4087 2.91331 12.2809C3.17214 12.5995 3.41642 12.9004 3.63539 13.1914C3.64045 13.1995 3.64551 13.2077 3.65184 13.2152C4.13724 13.8284 4.58403 14.4805 4.97893 15.154C5.2789 15.7327 5.52065 16.3434 5.69848 16.9698C5.69974 16.9742 5.70101 16.9792 5.70291 16.9836C5.85859 17.4175 6.04591 17.6859 6.50156 17.6859C6.99582 17.6859 7.18694 17.3097 7.29769 16.9824C7.29895 16.9792 7.29959 16.9755 7.30085 16.9723C7.47489 16.3597 7.71031 15.7609 7.99952 15.1935C8.57731 14.2209 9.24117 13.2892 9.97148 12.4251C10.7271 11.5404 11.4005 10.5786 11.9726 9.56717C11.9751 9.56341 11.977 9.55902 11.9789 9.55525C12.4428 8.59841 12.6858 7.53122 12.682 6.47155C12.6883 5.489 12.4516 4.50896 11.9985 3.63551L11.9991 3.63489ZM11.5302 3.68003L8.9798 6.69101C8.99056 6.60385 8.99626 6.51607 8.99816 6.42828C8.99816 6.4264 8.99816 6.42452 8.99816 6.42264C8.99183 5.76614 8.73046 5.14915 8.26089 4.68578C7.79194 4.22241 7.16859 3.9647 6.50599 3.96031C6.50473 3.96031 6.50283 3.96031 6.50156 3.96031C6.26678 3.96345 6.03642 3.99856 5.81492 4.06189L8.37417 1.04904C9.04372 1.27602 9.65822 1.61963 10.2012 2.07234C10.7442 2.52505 11.1903 3.06492 11.5302 3.67941V3.68003ZM8.08242 7.75068C8.08242 7.75068 8.07989 7.75444 8.07863 7.75632C7.6812 8.21217 7.10594 8.47552 6.49777 8.47865C5.95162 8.48116 5.43521 8.27236 5.04664 7.89113C4.65807 7.5099 4.44227 7.00076 4.43974 6.45901V6.44458C4.44607 5.96617 4.61567 5.49652 4.91564 5.12219C4.91628 5.12094 4.91754 5.11968 4.91817 5.11843C5.3194 4.66697 5.89719 4.40299 6.50473 4.39421C7.05088 4.3986 7.56412 4.61116 7.95079 4.99302C8.33746 5.37488 8.55326 5.88277 8.55896 6.42327C8.54947 6.90169 8.3805 7.37321 8.08242 7.74942V7.75068ZM6.47941 0.748066C6.48764 0.748066 6.4965 0.748066 6.50473 0.748066C6.98 0.748066 7.4521 0.805125 7.91282 0.917989L4.71693 4.67951L2.24565 2.61911C3.32466 1.42713 4.85489 0.747439 6.47941 0.747439V0.748066ZM0.754655 6.45838C0.748327 5.1874 1.17613 3.95091 1.9634 2.95206L4.43594 5.01309L1.18752 8.83857C0.892617 8.07924 0.747061 7.28104 0.755288 6.46151C0.755288 6.46026 0.755288 6.45963 0.755288 6.45838H0.754655ZM1.37991 9.28626L4.01953 6.1781C4.0094 6.26526 4.00307 6.35304 4.00181 6.44082V6.46026C4.00497 7.11864 4.26634 7.73563 4.73844 8.199C5.20739 8.65924 5.82821 8.91255 6.48827 8.91255C6.49207 8.91255 6.4965 8.91255 6.5003 8.91255C6.73066 8.9113 6.95658 8.87932 7.17365 8.8185L3.83727 12.7343C3.65501 12.4991 3.45946 12.259 3.25568 12.0082C2.59119 11.1905 1.84126 10.2688 1.38054 9.28563L1.37991 9.28626ZM11.5871 9.36088C11.0296 10.3459 10.3733 11.2821 9.63607 12.1455C8.88804 13.0309 8.20899 13.9839 7.61791 14.9796C7.61538 14.9834 7.61348 14.9878 7.61158 14.9916C7.30845 15.5847 7.06227 16.2099 6.88001 16.8501C6.76483 17.1887 6.65788 17.2526 6.50093 17.2526C6.35348 17.2526 6.26425 17.2526 6.11742 16.8457C5.93137 16.1923 5.67823 15.5553 5.3656 14.9514C5.3637 14.9483 5.3618 14.9445 5.3599 14.9414C4.98399 14.3006 4.56251 13.6792 4.10686 13.0904L8.42036 8.02782C8.42479 8.02281 8.42859 8.01779 8.43239 8.01215L11.7409 4.10578C12.0757 4.8463 12.2491 5.65641 12.244 6.47029C12.2478 7.46475 12.02 8.4636 11.5871 9.36025V9.36088Z" fill="white"/>
<path d="M6.50284 18C5.82379 18 5.56685 17.5391 5.40548 17.0889C5.40168 17.0795 5.39852 17.0682 5.39535 17.0576C5.22322 16.4519 4.99033 15.8631 4.70238 15.305C4.31571 14.6467 3.87904 14.009 3.40377 13.4096C3.39365 13.397 3.38415 13.3832 3.37403 13.3675C3.16013 13.0829 2.92091 12.7888 2.66777 12.4778C1.94822 11.5924 1.13248 10.5898 0.636954 9.47309L0.627461 9.4524C0.201553 8.50308 -0.00918582 7.49483 0.000306928 6.45585C-0.00665442 4.9397 0.535065 3.46306 1.52484 2.30118L1.5299 2.29554C2.757 0.837078 4.56062 0 6.47879 0H6.50474C7.14961 0 7.78942 0.0934267 8.40708 0.277145C8.4267 0.280907 8.44632 0.285923 8.46467 0.291567C9.28232 0.546139 10.0303 0.953078 10.6872 1.50047C11.3441 2.04786 11.8757 2.70875 12.2694 3.46369C12.2763 3.47748 12.2833 3.49127 12.289 3.50632C12.7605 4.42115 13.006 5.44634 12.9997 6.47278C13.0035 7.57697 12.7497 8.69056 12.2649 9.69067C12.2605 9.69945 12.2554 9.71011 12.2491 9.72077C11.6675 10.7491 10.9828 11.7272 10.2132 12.6277C9.49685 13.4754 8.84565 14.3896 8.27798 15.3439C7.99953 15.8913 7.7736 16.4676 7.6059 17.0576C7.60336 17.0664 7.60083 17.0739 7.5983 17.0814C7.52109 17.3096 7.28694 18 6.50157 18H6.50284ZM6.42057 16.7497C6.45664 16.8488 6.48322 16.9046 6.50031 16.9347C6.5155 16.9109 6.54334 16.8601 6.57878 16.756C6.7661 16.0995 7.01924 15.458 7.32997 14.8492C7.33567 14.8385 7.34073 14.8291 7.34579 14.8204C7.94574 13.8096 8.63491 12.8421 9.39433 11.9436C10.117 11.0977 10.76 10.1804 11.3068 9.21601C11.7169 8.36388 11.9321 7.41519 11.9289 6.47152C11.9327 5.87585 11.8346 5.27704 11.6422 4.71146L8.68301 8.20525C8.67668 8.21402 8.66972 8.22218 8.66276 8.23095L4.51316 13.1011C4.92008 13.6416 5.29663 14.2071 5.6352 14.784C5.63963 14.7909 5.64406 14.799 5.64786 14.8072C5.96935 15.4273 6.22881 16.0807 6.42057 16.7503V16.7497ZM1.75457 9.33264C2.20452 10.2167 2.8918 11.0613 3.50186 11.8119C3.62084 11.9586 3.73602 12.0997 3.84613 12.2376L6.41297 9.22479C5.69722 9.2066 5.0264 8.92256 4.51569 8.42157C4.11383 8.02717 3.84677 7.53308 3.73918 6.99446L1.75393 9.33201L1.75457 9.33264ZM2.0191 3.40788C1.4008 4.30076 1.06666 5.37172 1.07172 6.4571V6.46149C1.06603 7.05904 1.14577 7.64469 1.30841 8.20963L3.99042 5.05131L2.0191 3.40788ZM5.16436 5.31717L5.16183 5.3203C4.90742 5.63758 4.76313 6.0395 4.75681 6.44895V6.45835C4.75934 6.91608 4.94097 7.3456 5.27005 7.66851C5.5985 7.9908 6.0339 8.16512 6.49714 8.16512C7.00849 8.16198 7.49451 7.9419 7.83182 7.56066C7.83182 7.56004 7.83309 7.55941 7.83372 7.55816L7.83499 7.5569C8.09003 7.23461 8.23558 6.83206 8.24444 6.42261C8.23811 5.96614 8.05522 5.53788 7.7293 5.21559C7.40275 4.89267 6.96862 4.71272 6.5079 4.70833C5.99529 4.71648 5.50737 4.93845 5.16563 5.31717H5.16436ZM6.58005 3.64803C7.29896 3.6706 7.97295 3.95841 8.48429 4.46379C8.88109 4.85568 9.14562 5.34476 9.25637 5.8771L11.1461 3.64615C10.8404 3.14202 10.4544 2.6937 9.99744 2.31247C9.53988 1.93124 9.02854 1.63089 8.47416 1.41833L6.58005 3.6474V3.64803ZM2.70701 2.594L4.67897 4.23806L7.32618 1.12175C7.05468 1.08162 6.78003 1.06093 6.50537 1.06093H6.48006C5.065 1.06093 3.70817 1.61584 2.70764 2.594H2.70701Z" fill="white"/>
</g>
<defs>
<clipPath id="clip0_148_190">
<rect width="13" height="18" fill="white"/>
</clipPath>
</defs>
</svg>
