<svg width="16" height="16" viewBox="0 0 16 16" fill="none" xmlns="http://www.w3.org/2000/svg">
<g clip-path="url(#clip0_148_193)">
<path d="M8.00158 16C6.50743 16 5.05955 15.5877 3.79893 14.8059L1.81947 15.4385C1.51144 15.5369 1.17881 15.455 0.951619 15.2247C0.724428 14.9943 0.647237 14.6605 0.749996 14.3537L1.37751 12.4821C0.475322 11.1589 0 9.61481 0 8.00012C0 3.58878 3.58781 0 7.99769 0H8.00134C12.4117 0 15.9998 3.58878 15.9998 8.00012C15.9998 12.4115 12.4117 16.0002 8.00134 16.0002L8.00158 16ZM3.94284 13.7373L4.1374 13.8662C5.28382 14.6249 6.61993 15.026 8.00158 15.026C11.8748 15.026 15.026 11.874 15.026 7.99988C15.026 4.12571 11.8748 0.974021 8.00158 0.974021H7.99793C4.12498 0.974021 0.974265 4.12595 0.974265 8.00012C0.974265 9.49257 1.43668 10.9161 2.31135 12.1166L2.4594 12.3199L1.74885 14.4386L3.94284 13.7376V13.7373ZM10.4663 12.6934C9.99492 12.6934 9.31992 12.5544 8.08023 12.0406C7.05289 11.615 5.84754 10.6794 4.85598 9.5381C4.218 8.80369 3.14779 7.37042 3.14779 6.02115C3.14779 5.42481 3.32287 4.81313 3.62799 4.34316C4.00785 3.75802 4.55598 3.43586 5.17108 3.43586C5.42968 3.43586 5.65322 3.43586 5.8602 3.53277C6.12878 3.65842 6.25395 3.88732 6.3494 4.11597C6.3964 4.2292 6.45995 4.38358 6.52959 4.55282C6.69712 4.95898 6.9774 5.63909 7.01514 5.7197C7.15491 6.01141 7.15516 6.3175 7.01514 6.60313C6.91531 6.80695 6.76263 6.96863 6.61531 7.12496C6.5442 7.20021 6.477 7.27155 6.41782 7.34485C6.59631 7.63608 6.97886 8.20442 7.4912 8.66051C8.19785 9.29021 8.76862 9.52081 9.04281 9.63161C9.07057 9.64281 9.09517 9.65279 9.11659 9.6618C9.12098 9.66375 9.12512 9.66497 9.12901 9.66594C9.25003 9.52763 9.40953 9.30409 9.56391 9.08737C9.59216 9.04768 9.62065 9.00775 9.64914 8.96781C9.9131 8.59476 10.3271 8.46887 10.7568 8.63104C10.8995 8.68462 11.4389 8.93689 11.7788 9.10223C12.7543 9.57609 12.8437 9.67227 12.9233 9.81229C13.1016 10.124 13.001 10.78 12.832 11.2585C12.5863 11.9542 11.7248 12.4765 11.0008 12.6328C10.8413 12.6667 10.6733 12.6937 10.4659 12.6937L10.4663 12.6934ZM5.17132 4.40988C4.48658 4.40988 4.12181 5.34567 4.12181 6.02115C4.12181 7.67066 6.64161 10.3901 8.45304 11.1406C10.1074 11.8263 10.5226 11.7384 10.7975 11.6802C11.2799 11.576 11.8129 11.22 11.914 10.9339C12.0065 10.6721 12.036 10.4583 12.043 10.3297C11.6542 10.1123 10.6317 9.63015 10.431 9.5493C10.4064 9.58388 10.3818 9.61821 10.3573 9.65255C10.1644 9.92308 9.98225 10.1788 9.81643 10.3582L9.81424 10.3604C9.55028 10.6424 9.12999 10.7213 8.74306 10.5613C8.72309 10.553 8.70166 10.5443 8.67804 10.5348C8.37829 10.4137 7.67602 10.1301 6.84323 9.38786C6.19843 8.81392 5.74307 8.11993 5.52927 7.75759L5.52781 7.75491C5.22781 7.23917 5.55411 6.85711 5.66125 6.73146L5.66174 6.73073C5.74405 6.62919 5.83049 6.53763 5.90671 6.45679C5.99486 6.36328 6.12684 6.22351 6.14559 6.1636C6.14437 6.15947 6.14169 6.15143 6.13609 6.1395C6.09737 6.05817 5.94835 5.699 5.62911 4.92416C5.55947 4.75541 5.49616 4.60152 5.44989 4.48975C5.43601 4.45663 5.42481 4.43228 5.41629 4.41499C5.3503 4.41012 5.24242 4.41012 5.17108 4.41012L5.17132 4.40988Z" fill="white"/>
</g>
<defs>
<clipPath id="clip0_148_193">
<rect width="16" height="16" fill="white"/>
</clipPath>
</defs>
</svg>
